<?xml version="1.0" encoding="UTF-8"?>
<svg viewBox="0 0 65 61" xmlns="http://www.w3.org/2000/svg">
  <path d="m64.067 0.4105-15.679 55.544c-0.0798 0.2521-0.3987 0.3278-0.5847 0.1513l-10.497-9.959 7.866-27.835c0.0798-0.2521-0.1594-0.479-0.4252-0.4034l-29.338 7.463-10.444-9.9086c-0.18602-0.1765-0.10629-0.4791 0.15945-0.5547l58.517-14.901c0.2657-0.050425 0.5049 0.17649 0.4252 0.4034z" fill="#00B37E" opacity=".5"/>
  <path d="m37.306 46.146-4.0393 14.371c-0.0797 0.2522-0.3986 0.3278-0.5847 0.1513l-32.58-30.886c-0.18602-0.1765-0.1063-0.479 0.15945-0.5546l15.148-3.8576 21.897 20.775z" fill="#00B37E" opacity=".5"/>
  <path d="m45.171 18.311-7.8661 27.835-21.897-20.775 29.338-7.463c0.2658-0.0756 0.5049 0.1513 0.4252 0.4034z" fill="#00B37E"/>
</svg>
